# xmcd
#
# Track frame offsets:
#	150
#	14969
#	37026
#	48736
#	76301
#	93822
#	107342
#	124213
#	147328
#	164926
#	184041
#	212143
#	228040
#	253741
#
# Disc length: 3839 seconds
#
# Revision: 0
# Processed by: cddbd v1.5.2PL0 Copyright (c) Steve Scherf et al.
# Submitted via: audiograbber 1.83.01
#
DISCID=c70efd0e
DTITLE=Open Bluesband - Open Bluesband
DYEAR=2007
DGENRE=
TTITLE0=Nightmare Blues
TTITLE1=They Call Me The Breeze
TTITLE2=I Want To Be Loved
TTITLE3=Mother Earth
TTITLE4=One Chance With You
TTITLE5=Long Grey Mare
TTITLE6=I'm Tore Down
TTITLE7=Dangerous Mood
TTITLE8=The Stumble
TTITLE9=Jumpin' At Shadows
TTITLE10=Blues All Day Long
TTITLE11=Further On Up The Road
TTITLE12=Help The Poor
TTITLE13=Bad Weather Blues
EXTD=DIRX Handmade Music
EXTT0=
EXTT1=
EXTT2=
EXTT3=
EXTT4=
EXTT5=
EXTT6=
EXTT7=
EXTT8=
EXTT9=
EXTT10=
EXTT11=
EXTT12=
EXTT13=
PLAYORDER=
